<svg id="visual" viewBox="0 0 900 600" width="900" height="600" xmlns="http://www.w3.org/2000/svg" xmlns:xlink="http://www.w3.org/1999/xlink" version="1.1"><path d="M0 43L18.8 48C37.7 53 75.3 63 112.8 65C150.3 67 187.7 61 225.2 60C262.7 59 300.3 63 337.8 62C375.3 61 412.7 55 450.2 54C487.7 53 525.3 57 562.8 58C600.3 59 637.7 57 675.2 62C712.7 67 750.3 79 787.8 78C825.3 77 862.7 63 881.3 56L900 49L900 0L881.3 0C862.7 0 825.3 0 787.8 0C750.3 0 712.7 0 675.2 0C637.7 0 600.3 0 562.8 0C525.3 0 487.7 0 450.2 0C412.7 0 375.3 0 337.8 0C300.3 0 262.7 0 225.2 0C187.7 0 150.3 0 112.8 0C75.3 0 37.7 0 18.8 0L0 0Z" fill="#6198ff"></path><path d="M0 109L18.8 112C37.7 115 75.3 121 112.8 126C150.3 131 187.7 135 225.2 132C262.7 129 300.3 119 337.8 121C375.3 123 412.7 137 450.2 135C487.7 133 525.3 115 562.8 118C600.3 121 637.7 145 675.2 161C712.7 177 750.3 185 787.8 171C825.3 157 862.7 121 881.3 103L900 85L900 47L881.3 54C862.7 61 825.3 75 787.8 76C750.3 77 712.7 65 675.2 60C637.7 55 600.3 57 562.8 56C525.3 55 487.7 51 450.2 52C412.7 53 375.3 59 337.8 60C300.3 61 262.7 57 225.2 58C187.7 59 150.3 65 112.8 63C75.3 61 37.7 51 18.8 46L0 41Z" fill="#4385ff"></path><path d="M0 289L18.8 288C37.7 287 75.3 285 112.8 298C150.3 311 187.7 339 225.2 343C262.7 347 300.3 327 337.8 310C375.3 293 412.7 279 450.2 262C487.7 245 525.3 225 562.8 230C600.3 235 637.7 265 675.2 283C712.7 301 750.3 307 787.8 289C825.3 271 862.7 229 881.3 208L900 187L900 83L881.3 101C862.7 119 825.3 155 787.8 169C750.3 183 712.7 175 675.2 159C637.7 143 600.3 119 562.8 116C525.3 113 487.7 131 450.2 133C412.7 135 375.3 121 337.8 119C300.3 117 262.7 127 225.2 130C187.7 133 150.3 129 112.8 124C75.3 119 37.7 113 18.8 110L0 107Z" fill="#2071ff"></path><path d="M0 445L18.8 443C37.7 441 75.3 437 112.8 439C150.3 441 187.7 449 225.2 444C262.7 439 300.3 421 337.8 417C375.3 413 412.7 423 450.2 427C487.7 431 525.3 429 562.8 433C600.3 437 637.7 447 675.2 446C712.7 445 750.3 433 787.8 418C825.3 403 862.7 385 881.3 376L900 367L900 185L881.3 206C862.7 227 825.3 269 787.8 287C750.3 305 712.7 299 675.2 281C637.7 263 600.3 233 562.8 228C525.3 223 487.7 243 450.2 260C412.7 277 375.3 291 337.8 308C300.3 325 262.7 345 225.2 341C187.7 337 150.3 309 112.8 296C75.3 283 37.7 285 18.8 286L0 287Z" fill="#0061f1"></path><path d="M0 523L18.8 513C37.7 503 75.3 483 112.8 479C150.3 475 187.7 487 225.2 487C262.7 487 300.3 475 337.8 475C375.3 475 412.7 487 450.2 495C487.7 503 525.3 507 562.8 507C600.3 507 637.7 503 675.2 500C712.7 497 750.3 495 787.8 487C825.3 479 862.7 465 881.3 458L900 451L900 365L881.3 374C862.7 383 825.3 401 787.8 416C750.3 431 712.7 443 675.2 444C637.7 445 600.3 435 562.8 431C525.3 427 487.7 429 450.2 425C412.7 421 375.3 411 337.8 415C300.3 419 262.7 437 225.2 442C187.7 447 150.3 439 112.8 437C75.3 435 37.7 439 18.8 441L0 443Z" fill="#0056d6"></path><path d="M0 601L18.8 601C37.7 601 75.3 601 112.8 601C150.3 601 187.7 601 225.2 601C262.7 601 300.3 601 337.8 601C375.3 601 412.7 601 450.2 601C487.7 601 525.3 601 562.8 601C600.3 601 637.7 601 675.2 601C712.7 601 750.3 601 787.8 601C825.3 601 862.7 601 881.3 601L900 601L900 449L881.3 456C862.7 463 825.3 477 787.8 485C750.3 493 712.7 495 675.2 498C637.7 501 600.3 505 562.8 505C525.3 505 487.7 501 450.2 493C412.7 485 375.3 473 337.8 473C300.3 473 262.7 485 225.2 485C187.7 485 150.3 473 112.8 477C75.3 481 37.7 501 18.8 511L0 521Z" fill="#004cbb"></path></svg>