<svg xmlns="http://www.w3.org/2000/svg" xmlns:xlink="http://www.w3.org/1999/xlink" width="605" zoomAndPan="magnify" viewBox="0 0 453.75 82.499998" height="110" preserveAspectRatio="xMidYMid meet" version="1.0"><defs><g/></defs><g fill="#000000" fill-opacity="1"><g transform="translate(18.750132, 65.166772)"><g><path d="M 12.027344 0 C 16.210938 0 21.675781 -2.957031 24.699219 -12.992188 C 25.472656 -15.5 27.660156 -15.371094 27.273438 -12.992188 C 25.730469 -3.152344 29.84375 0 34.21875 0 C 51.007812 0 44.1875 -35.957031 56.796875 -35.957031 C 58.984375 -35.957031 58.917969 -34.667969 62.199219 -34.667969 C 71.976562 -34.667969 72.875 -49.140625 60.847656 -49.140625 C 52.488281 -49.140625 45.925781 -42.453125 40.910156 -26.179688 C 38.980469 -20.070312 37.691406 -14.988281 35.183594 -14.988281 C 33.703125 -14.988281 32.484375 -18.652344 34.21875 -27.273438 C 35.441406 -33.125 39.621094 -37.179688 39.621094 -41.746094 C 39.621094 -44.898438 36.921875 -46.570312 34.089844 -46.570312 C 28.367188 -46.570312 28.429688 -40.007812 25.34375 -29.074219 C 22.578125 -19.105469 20.710938 -14.988281 18.332031 -14.988281 C 14.988281 -14.988281 16.210938 -20.132812 20.195312 -37.308594 C 21.742188 -43.867188 20.96875 -47.855469 11.640625 -47.855469 C -1.867188 -47.855469 -11.511719 -39.75 -11.511719 -30.167969 C -11.511719 -25.214844 -8.746094 -20.710938 -3.472656 -20.710938 C 2.765625 -20.710938 6.109375 -26.242188 4.953125 -29.074219 C 3.539062 -29.074219 2.507812 -30.488281 2.507812 -32.289062 C 2.507812 -36.34375 7.527344 -39.238281 13.25 -37.5625 C 6.882812 -25.859375 4.566406 -17.367188 4.566406 -11.449219 C 4.566406 -3.28125 8.296875 0 12.027344 0 Z M 12.027344 0 "/></g></g></g><g fill="#000000" fill-opacity="1"><g transform="translate(68.273717, 65.166772)"><g><path d="M 12.09375 0 C 19.554688 0 26.371094 -5.53125 32.03125 -16.015625 C 32.738281 -17.238281 30.167969 -19.167969 29.136719 -17.625 C 26.242188 -13.1875 21.035156 -10.933594 16.660156 -10.933594 C 12.992188 -10.933594 9.96875 -12.09375 9.96875 -14.34375 C 9.96875 -15.179688 10.613281 -15.371094 11.0625 -15.117188 C 12.542969 -14.28125 14.28125 -14.085938 16.082031 -14.085938 C 22.382812 -14.085938 26.4375 -19.359375 26.4375 -24.054688 C 26.4375 -28.300781 23.800781 -32.160156 17.816406 -32.160156 C -0.644531 -32.160156 -5.980469 0 12.09375 0 Z M 14.40625 -18.910156 C 12.351562 -18.910156 11.386719 -20.132812 11.386719 -21.546875 C 11.386719 -23.285156 12.929688 -25.148438 15.4375 -25.148438 C 17.429688 -25.148438 18.394531 -23.929688 18.394531 -22.511719 C 18.394531 -20.90625 16.917969 -18.910156 14.40625 -18.910156 Z M 14.40625 -18.910156 "/></g></g></g><g fill="#000000" fill-opacity="1"><g transform="translate(95.929745, 65.166772)"><g><path d="M 6.816406 0 C 11.386719 0 15.246094 -4.179688 17.816406 -9.390625 L 18.074219 -9.390625 C 17.300781 -4.050781 19.167969 0 23.605469 0 C 30.746094 0 34.285156 -10.035156 37.433594 -16.015625 C 38.078125 -17.238281 35.503906 -19.167969 34.539062 -17.625 C 33.253906 -15.566406 31.644531 -14.34375 29.460938 -14.34375 C 26.628906 -14.34375 25.921875 -16.917969 28.109375 -21.613281 C 29.523438 -25.34375 31.195312 -27.335938 31.195312 -29.78125 C 31.195312 -31.195312 30.617188 -32.160156 28.945312 -32.160156 C 25.921875 -32.160156 25.472656 -29.71875 23.347656 -29.71875 C 21.675781 -29.71875 21.933594 -32.160156 16.789062 -32.160156 C 5.726562 -32.160156 0.191406 -18.652344 0.191406 -9.710938 C 0.191406 -3.988281 2.445312 0 6.816406 0 Z M 13.25 -13.316406 C 11.257812 -13.316406 10.035156 -14.601562 10.035156 -16.789062 C 10.035156 -19.617188 12.15625 -22.769531 15.5 -22.769531 C 17.558594 -22.769531 18.847656 -21.484375 18.847656 -19.359375 C 18.847656 -16.660156 16.59375 -13.316406 13.25 -13.316406 Z M 13.25 -13.316406 "/></g></g></g><g fill="#000000" fill-opacity="1"><g transform="translate(128.988347, 65.166772)"><g><path d="M 6.496094 0 C 15.757812 0 20.710938 -12.351562 22.640625 -16.015625 C 23.285156 -17.238281 20.777344 -19.105469 19.746094 -17.625 C 18.460938 -15.628906 16.402344 -14.40625 13.828125 -14.40625 C 10.035156 -14.40625 8.039062 -17.238281 9.390625 -21.742188 C 10.613281 -26.050781 11 -26.179688 16.980469 -26.179688 C 19.554688 -26.179688 20.324219 -32.097656 18.589844 -32.097656 L 15.246094 -32.097656 C 14.023438 -32.097656 14.214844 -33.191406 15.179688 -35.25 C 17.175781 -39.300781 16.335938 -41.292969 13.957031 -41.292969 C 12.351562 -41.292969 10.933594 -40.714844 9.390625 -36.984375 C 8.492188 -34.667969 6.433594 -32.097656 2.703125 -32.097656 C 1.222656 -32.097656 1.285156 -27.144531 5.015625 -27.144531 C 3.410156 -22.707031 1.992188 -18.910156 0.902344 -15.695312 C -1.992188 -7.460938 -0.707031 0 6.496094 0 Z M 6.496094 0 "/></g></g></g><g fill="#000000" fill-opacity="1"><g transform="translate(147.254189, 65.166772)"><g><path d="M 4.375 0 C 8.621094 0 9.457031 -3.539062 9.457031 -6.816406 L 9.457031 -9.710938 C 9.457031 -15.4375 12.671875 -20.777344 16.402344 -20.777344 C 17.882812 -20.777344 18.847656 -20.003906 18.847656 -18.523438 C 18.847656 -15.886719 15.824219 -11.578125 15.824219 -6.691406 C 15.824219 -3.085938 17.238281 0 21.484375 0 C 30.167969 0 34.539062 -12.476562 36.597656 -16.015625 C 37.308594 -17.238281 34.734375 -19.167969 33.703125 -17.625 C 32.417969 -15.695312 31.195312 -14.34375 29.265625 -14.34375 C 27.207031 -14.34375 26.308594 -15.371094 26.308594 -17.558594 C 26.308594 -20.777344 28.367188 -22.835938 28.367188 -26.242188 C 28.367188 -29.460938 26.5 -32.160156 22.578125 -32.160156 C 19.746094 -32.160156 17.175781 -30.808594 14.792969 -28.496094 C 13.378906 -27.078125 12.351562 -27.335938 13.058594 -29.972656 C 13.828125 -32.996094 16.082031 -36.46875 17.753906 -40.203125 C 19.617188 -44.316406 18.847656 -46.246094 16.210938 -46.246094 C 11 -46.246094 8.039062 -36.40625 1.542969 -17.625 C 0.257812 -13.957031 -0.644531 -9.90625 -0.644531 -6.625 C -0.644531 -2.832031 0.644531 0 4.375 0 Z M 4.375 0 "/></g></g></g><g fill="#000000" fill-opacity="1"><g transform="translate(179.476674, 65.166772)"><g><path d="M 12.09375 0 C 19.554688 0 26.371094 -5.53125 32.03125 -16.015625 C 32.738281 -17.238281 30.167969 -19.167969 29.136719 -17.625 C 26.242188 -13.1875 21.035156 -10.933594 16.660156 -10.933594 C 12.992188 -10.933594 9.96875 -12.09375 9.96875 -14.34375 C 9.96875 -15.179688 10.613281 -15.371094 11.0625 -15.117188 C 12.542969 -14.28125 14.28125 -14.085938 16.082031 -14.085938 C 22.382812 -14.085938 26.4375 -19.359375 26.4375 -24.054688 C 26.4375 -28.300781 23.800781 -32.160156 17.816406 -32.160156 C -0.644531 -32.160156 -5.980469 0 12.09375 0 Z M 14.40625 -18.910156 C 12.351562 -18.910156 11.386719 -20.132812 11.386719 -21.546875 C 11.386719 -23.285156 12.929688 -25.148438 15.4375 -25.148438 C 17.429688 -25.148438 18.394531 -23.929688 18.394531 -22.511719 C 18.394531 -20.90625 16.917969 -18.910156 14.40625 -18.910156 Z M 14.40625 -18.910156 "/></g></g></g><g fill="#000000" fill-opacity="1"><g transform="translate(207.132701, 65.166772)"><g><path d="M 26.886719 -17.625 C 25.601562 -15.695312 24.378906 -14.34375 22.449219 -14.34375 C 19.554688 -14.34375 18.460938 -15.695312 18.460938 -17.496094 C 18.460938 -21.484375 21.226562 -24.183594 21.226562 -27.851562 C 21.226562 -31.324219 15.050781 -35.441406 9.003906 -35.441406 C 5.53125 -35.441406 3.28125 -32.289062 3.28125 -29.652344 C 3.28125 -27.335938 4.117188 -26.5 5.402344 -26.050781 C 4.308594 -23.089844 2.703125 -19.359375 1.480469 -17.625 C 0.644531 -16.402344 3.539062 -14.34375 4.375 -16.015625 C 5.402344 -18.140625 7.527344 -22.511719 8.683594 -25.085938 C 11.257812 -24.121094 12.09375 -22.511719 12.09375 -21.871094 C 12.09375 -18.78125 7.589844 -12.734375 7.589844 -6.753906 C 7.589844 -3.472656 9.390625 0 14.664062 0 C 23.347656 0 27.722656 -12.476562 29.78125 -16.015625 C 30.488281 -17.238281 27.914062 -19.167969 26.886719 -17.625 Z M 26.886719 -17.625 "/></g></g></g><g fill="#000000" fill-opacity="1"><g transform="translate(232.537647, 65.166772)"><g/></g></g><g fill="#000000" fill-opacity="1"><g transform="translate(255.691523, 65.166772)"><g><path d="M 7.847656 2.703125 C 17.046875 2.703125 24.378906 -5.597656 28.429688 -16.53125 C 28.753906 -17.496094 29.136719 -18.011719 30.101562 -18.011719 C 33.253906 -18.011719 32.996094 -11.898438 33.320312 -8.234375 C 33.769531 -2.378906 36.597656 0 40.203125 0 C 46.957031 0 53.257812 -8.234375 56.539062 -16.015625 C 57.054688 -17.300781 54.671875 -19.167969 53.644531 -17.625 C 51.90625 -15.050781 50.300781 -13.316406 47.40625 -13.316406 C 44.898438 -13.316406 43.804688 -14.601562 42.839844 -16.335938 C 41.488281 -18.78125 40.265625 -18.523438 40.265625 -19.359375 C 40.265625 -19.8125 40.714844 -20.132812 42.515625 -20.390625 C 48.886719 -21.417969 52.742188 -26.824219 52.742188 -33.960938 C 52.742188 -42.644531 46.117188 -47.855469 32.03125 -47.855469 C 14.601562 -47.855469 3.796875 -37.5 3.796875 -28.367188 C 3.796875 -23.671875 6.5625 -19.425781 11.835938 -19.425781 C 18.074219 -19.425781 21.417969 -24.957031 20.261719 -27.789062 C 18.847656 -27.789062 17.816406 -29.074219 17.816406 -30.808594 C 17.816406 -34.925781 22.382812 -39.238281 30.875 -39.238281 C 37.433594 -39.238281 42.257812 -37.308594 42.257812 -32.097656 C 42.257812 -27.53125 38.65625 -24.054688 34.667969 -24.054688 C 33.125 -24.054688 32.097656 -24.25 32.226562 -25.792969 C 32.417969 -27.335938 33.0625 -29.460938 34.15625 -32.609375 C 34.796875 -34.734375 34.027344 -36.085938 31.324219 -36.085938 C 29.394531 -36.085938 27.980469 -35.25 27.144531 -32.996094 C 26.050781 -30.230469 24.828125 -26.949219 23.734375 -24.054688 C 19.941406 -15.695312 15.886719 -13.058594 12.351562 -13.058594 C 9.328125 -13.058594 6.945312 -14.988281 6.945312 -17.816406 C 6.945312 -18.265625 6.496094 -18.589844 5.980469 -18.589844 C 0.835938 -18.589844 -2.574219 -13.378906 -2.574219 -8.105469 C -2.574219 -2.765625 0.386719 2.703125 7.847656 2.703125 Z M 7.847656 2.703125 "/></g></g></g><g fill="#000000" fill-opacity="1"><g transform="translate(307.852062, 65.166772)"><g><path d="M 12.09375 0 C 19.554688 0 26.371094 -5.53125 32.03125 -16.015625 C 32.738281 -17.238281 30.167969 -19.167969 29.136719 -17.625 C 26.242188 -13.1875 21.035156 -10.933594 16.660156 -10.933594 C 12.992188 -10.933594 9.96875 -12.09375 9.96875 -14.34375 C 9.96875 -15.179688 10.613281 -15.371094 11.0625 -15.117188 C 12.542969 -14.28125 14.28125 -14.085938 16.082031 -14.085938 C 22.382812 -14.085938 26.4375 -19.359375 26.4375 -24.054688 C 26.4375 -28.300781 23.800781 -32.160156 17.816406 -32.160156 C -0.644531 -32.160156 -5.980469 0 12.09375 0 Z M 14.40625 -18.910156 C 12.351562 -18.910156 11.386719 -20.132812 11.386719 -21.546875 C 11.386719 -23.285156 12.929688 -25.148438 15.4375 -25.148438 C 17.429688 -25.148438 18.394531 -23.929688 18.394531 -22.511719 C 18.394531 -20.90625 16.917969 -18.910156 14.40625 -18.910156 Z M 14.40625 -18.910156 "/></g></g></g><g fill="#000000" fill-opacity="1"><g transform="translate(335.508079, 65.166772)"><g><path d="M 32.867188 -17.625 C 31.324219 -15.371094 29.589844 -14.472656 27.722656 -14.472656 C 28.496094 -16.980469 28.945312 -19.617188 28.945312 -22.382812 C 28.945312 -28.429688 25.601562 -32.160156 20.519531 -32.160156 C 18.523438 -32.160156 16.464844 -31.773438 14.214844 -29.589844 C 13.1875 -28.558594 11.964844 -29.007812 12.15625 -29.972656 C 12.351562 -31.132812 11.835938 -32.160156 9.585938 -32.160156 C 6.304688 -32.160156 5.660156 -29.910156 1.480469 -17.625 C 0.578125 -15.050781 -0.320312 -12.605469 -1.15625 -10.355469 C -4.4375 -1.929688 -7.398438 4.503906 -7.398438 8.425781 C -7.398438 11.257812 -6.109375 12.863281 -2.894531 12.863281 C 1.671875 12.863281 3.410156 2.1875 5.339844 -7.203125 C 5.660156 -8.8125 7.398438 -8.683594 7.140625 -7.203125 C 6.304688 -2.058594 9.132812 0 12.800781 0 C 16.917969 0 21.097656 -2.832031 24.121094 -7.203125 L 24.507812 -7.203125 C 30.746094 -7.203125 33.898438 -12.09375 35.761719 -16.015625 C 36.46875 -17.496094 33.640625 -18.71875 32.867188 -17.625 Z M 14.023438 -13.316406 C 11.578125 -13.316406 10.675781 -14.921875 10.675781 -16.789062 C 10.675781 -19.617188 12.800781 -22.769531 15.953125 -22.769531 C 18.460938 -22.769531 19.488281 -21.226562 19.488281 -19.359375 C 19.488281 -16.660156 17.238281 -13.316406 14.023438 -13.316406 Z M 14.023438 -13.316406 "/></g></g></g><g fill="#000000" fill-opacity="1"><g transform="translate(366.894469, 65.166772)"><g><path d="M 32.097656 -17.625 C 30.554688 -15.371094 28.816406 -14.472656 26.949219 -14.472656 L 26.5 -14.472656 C 27.144531 -16.59375 27.464844 -18.847656 27.464844 -21.097656 C 27.464844 -29.203125 23.347656 -32.160156 18.074219 -32.160156 C 7.847656 -32.160156 0.386719 -20.453125 0.386719 -10.804688 C 0.386719 -4.117188 4.566406 0 10.355469 0 C 15.179688 0 19.746094 -2.832031 22.964844 -7.203125 L 23.734375 -7.203125 C 29.972656 -7.203125 33.125 -12.09375 34.992188 -16.015625 C 35.699219 -17.496094 32.867188 -18.71875 32.097656 -17.625 Z M 14.023438 -13.316406 C 11.578125 -13.316406 10.675781 -14.921875 10.675781 -16.789062 C 10.675781 -19.617188 12.800781 -22.769531 15.953125 -22.769531 C 18.460938 -22.769531 19.488281 -21.226562 19.488281 -19.359375 C 19.488281 -16.660156 17.238281 -13.316406 14.023438 -13.316406 Z M 14.023438 -13.316406 "/></g></g></g><g fill="#000000" fill-opacity="1"><g transform="translate(397.509049, 65.166772)"><g><path d="M 26.886719 -17.625 C 25.601562 -15.695312 24.378906 -14.34375 22.449219 -14.34375 C 19.554688 -14.34375 18.460938 -15.695312 18.460938 -17.496094 C 18.460938 -21.484375 21.226562 -24.183594 21.226562 -27.851562 C 21.226562 -31.324219 15.050781 -35.441406 9.003906 -35.441406 C 5.53125 -35.441406 3.28125 -32.289062 3.28125 -29.652344 C 3.28125 -27.335938 4.117188 -26.5 5.402344 -26.050781 C 4.308594 -23.089844 2.703125 -19.359375 1.480469 -17.625 C 0.644531 -16.402344 3.539062 -14.34375 4.375 -16.015625 C 5.402344 -18.140625 7.527344 -22.511719 8.683594 -25.085938 C 11.257812 -24.121094 12.09375 -22.511719 12.09375 -21.871094 C 12.09375 -18.78125 7.589844 -12.734375 7.589844 -6.753906 C 7.589844 -3.472656 9.390625 0 14.664062 0 C 23.347656 0 27.722656 -12.476562 29.78125 -16.015625 C 30.488281 -17.238281 27.914062 -19.167969 26.886719 -17.625 Z M 26.886719 -17.625 "/></g></g></g><g fill="#000000" fill-opacity="1"><g transform="translate(422.914017, 65.166772)"><g><path d="M 6.496094 0 C 15.757812 0 20.710938 -12.351562 22.640625 -16.015625 C 23.285156 -17.238281 20.777344 -19.105469 19.746094 -17.625 C 18.460938 -15.628906 16.402344 -14.40625 13.828125 -14.40625 C 10.035156 -14.40625 8.039062 -17.238281 9.390625 -21.742188 C 10.613281 -26.050781 11 -26.179688 16.980469 -26.179688 C 19.554688 -26.179688 20.324219 -32.097656 18.589844 -32.097656 L 15.246094 -32.097656 C 14.023438 -32.097656 14.214844 -33.191406 15.179688 -35.25 C 17.175781 -39.300781 16.335938 -41.292969 13.957031 -41.292969 C 12.351562 -41.292969 10.933594 -40.714844 9.390625 -36.984375 C 8.492188 -34.667969 6.433594 -32.097656 2.703125 -32.097656 C 1.222656 -32.097656 1.285156 -27.144531 5.015625 -27.144531 C 3.410156 -22.707031 1.992188 -18.910156 0.902344 -15.695312 C -1.992188 -7.460938 -0.707031 0 6.496094 0 Z M 6.496094 0 "/></g></g></g><g fill="#ffffff" fill-opacity="1"><g transform="translate(17.045823, 61.84527)"><g><path d="M 12.027344 0 C 16.210938 0 21.675781 -2.957031 24.699219 -12.992188 C 25.472656 -15.5 27.660156 -15.371094 27.273438 -12.992188 C 25.730469 -3.152344 29.84375 0 34.21875 0 C 51.007812 0 44.1875 -35.957031 56.796875 -35.957031 C 58.984375 -35.957031 58.917969 -34.667969 62.199219 -34.667969 C 71.976562 -34.667969 72.875 -49.140625 60.847656 -49.140625 C 52.488281 -49.140625 45.925781 -42.453125 40.910156 -26.179688 C 38.980469 -20.070312 37.691406 -14.988281 35.183594 -14.988281 C 33.703125 -14.988281 32.484375 -18.652344 34.21875 -27.273438 C 35.441406 -33.125 39.621094 -37.179688 39.621094 -41.746094 C 39.621094 -44.898438 36.921875 -46.570312 34.089844 -46.570312 C 28.367188 -46.570312 28.429688 -40.007812 25.34375 -29.074219 C 22.578125 -19.105469 20.710938 -14.988281 18.332031 -14.988281 C 14.988281 -14.988281 16.210938 -20.132812 20.195312 -37.308594 C 21.742188 -43.867188 20.96875 -47.855469 11.640625 -47.855469 C -1.867188 -47.855469 -11.511719 -39.75 -11.511719 -30.167969 C -11.511719 -25.214844 -8.746094 -20.710938 -3.472656 -20.710938 C 2.765625 -20.710938 6.109375 -26.242188 4.953125 -29.074219 C 3.539062 -29.074219 2.507812 -30.488281 2.507812 -32.289062 C 2.507812 -36.34375 7.527344 -39.238281 13.25 -37.5625 C 6.882812 -25.859375 4.566406 -17.367188 4.566406 -11.449219 C 4.566406 -3.28125 8.296875 0 12.027344 0 Z M 12.027344 0 "/></g></g></g><g fill="#ffffff" fill-opacity="1"><g transform="translate(66.569408, 61.84527)"><g><path d="M 12.09375 0 C 19.554688 0 26.371094 -5.53125 32.03125 -16.015625 C 32.738281 -17.238281 30.167969 -19.167969 29.136719 -17.625 C 26.242188 -13.1875 21.035156 -10.933594 16.660156 -10.933594 C 12.992188 -10.933594 9.96875 -12.09375 9.96875 -14.34375 C 9.96875 -15.179688 10.613281 -15.371094 11.0625 -15.117188 C 12.542969 -14.28125 14.28125 -14.085938 16.082031 -14.085938 C 22.382812 -14.085938 26.4375 -19.359375 26.4375 -24.054688 C 26.4375 -28.300781 23.800781 -32.160156 17.816406 -32.160156 C -0.644531 -32.160156 -5.980469 0 12.09375 0 Z M 14.40625 -18.910156 C 12.351562 -18.910156 11.386719 -20.132812 11.386719 -21.546875 C 11.386719 -23.285156 12.929688 -25.148438 15.4375 -25.148438 C 17.429688 -25.148438 18.394531 -23.929688 18.394531 -22.511719 C 18.394531 -20.90625 16.917969 -18.910156 14.40625 -18.910156 Z M 14.40625 -18.910156 "/></g></g></g><g fill="#ffffff" fill-opacity="1"><g transform="translate(94.225436, 61.84527)"><g><path d="M 6.816406 0 C 11.386719 0 15.246094 -4.179688 17.816406 -9.390625 L 18.074219 -9.390625 C 17.300781 -4.050781 19.167969 0 23.605469 0 C 30.746094 0 34.285156 -10.035156 37.433594 -16.015625 C 38.078125 -17.238281 35.503906 -19.167969 34.539062 -17.625 C 33.253906 -15.566406 31.644531 -14.34375 29.460938 -14.34375 C 26.628906 -14.34375 25.921875 -16.917969 28.109375 -21.613281 C 29.523438 -25.34375 31.195312 -27.335938 31.195312 -29.78125 C 31.195312 -31.195312 30.617188 -32.160156 28.945312 -32.160156 C 25.921875 -32.160156 25.472656 -29.71875 23.347656 -29.71875 C 21.675781 -29.71875 21.933594 -32.160156 16.789062 -32.160156 C 5.726562 -32.160156 0.191406 -18.652344 0.191406 -9.710938 C 0.191406 -3.988281 2.445312 0 6.816406 0 Z M 13.25 -13.316406 C 11.257812 -13.316406 10.035156 -14.601562 10.035156 -16.789062 C 10.035156 -19.617188 12.15625 -22.769531 15.5 -22.769531 C 17.558594 -22.769531 18.847656 -21.484375 18.847656 -19.359375 C 18.847656 -16.660156 16.59375 -13.316406 13.25 -13.316406 Z M 13.25 -13.316406 "/></g></g></g><g fill="#ffffff" fill-opacity="1"><g transform="translate(127.284038, 61.84527)"><g><path d="M 6.496094 0 C 15.757812 0 20.710938 -12.351562 22.640625 -16.015625 C 23.285156 -17.238281 20.777344 -19.105469 19.746094 -17.625 C 18.460938 -15.628906 16.402344 -14.40625 13.828125 -14.40625 C 10.035156 -14.40625 8.039062 -17.238281 9.390625 -21.742188 C 10.613281 -26.050781 11 -26.179688 16.980469 -26.179688 C 19.554688 -26.179688 20.324219 -32.097656 18.589844 -32.097656 L 15.246094 -32.097656 C 14.023438 -32.097656 14.214844 -33.191406 15.179688 -35.25 C 17.175781 -39.300781 16.335938 -41.292969 13.957031 -41.292969 C 12.351562 -41.292969 10.933594 -40.714844 9.390625 -36.984375 C 8.492188 -34.667969 6.433594 -32.097656 2.703125 -32.097656 C 1.222656 -32.097656 1.285156 -27.144531 5.015625 -27.144531 C 3.410156 -22.707031 1.992188 -18.910156 0.902344 -15.695312 C -1.992188 -7.460938 -0.707031 0 6.496094 0 Z M 6.496094 0 "/></g></g></g><g fill="#ffffff" fill-opacity="1"><g transform="translate(145.54988, 61.84527)"><g><path d="M 4.375 0 C 8.621094 0 9.457031 -3.539062 9.457031 -6.816406 L 9.457031 -9.710938 C 9.457031 -15.4375 12.671875 -20.777344 16.402344 -20.777344 C 17.882812 -20.777344 18.847656 -20.003906 18.847656 -18.523438 C 18.847656 -15.886719 15.824219 -11.578125 15.824219 -6.691406 C 15.824219 -3.085938 17.238281 0 21.484375 0 C 30.167969 0 34.539062 -12.476562 36.597656 -16.015625 C 37.308594 -17.238281 34.734375 -19.167969 33.703125 -17.625 C 32.417969 -15.695312 31.195312 -14.34375 29.265625 -14.34375 C 27.207031 -14.34375 26.308594 -15.371094 26.308594 -17.558594 C 26.308594 -20.777344 28.367188 -22.835938 28.367188 -26.242188 C 28.367188 -29.460938 26.5 -32.160156 22.578125 -32.160156 C 19.746094 -32.160156 17.175781 -30.808594 14.792969 -28.496094 C 13.378906 -27.078125 12.351562 -27.335938 13.058594 -29.972656 C 13.828125 -32.996094 16.082031 -36.46875 17.753906 -40.203125 C 19.617188 -44.316406 18.847656 -46.246094 16.210938 -46.246094 C 11 -46.246094 8.039062 -36.40625 1.542969 -17.625 C 0.257812 -13.957031 -0.644531 -9.90625 -0.644531 -6.625 C -0.644531 -2.832031 0.644531 0 4.375 0 Z M 4.375 0 "/></g></g></g><g fill="#ffffff" fill-opacity="1"><g transform="translate(177.772365, 61.84527)"><g><path d="M 12.09375 0 C 19.554688 0 26.371094 -5.53125 32.03125 -16.015625 C 32.738281 -17.238281 30.167969 -19.167969 29.136719 -17.625 C 26.242188 -13.1875 21.035156 -10.933594 16.660156 -10.933594 C 12.992188 -10.933594 9.96875 -12.09375 9.96875 -14.34375 C 9.96875 -15.179688 10.613281 -15.371094 11.0625 -15.117188 C 12.542969 -14.28125 14.28125 -14.085938 16.082031 -14.085938 C 22.382812 -14.085938 26.4375 -19.359375 26.4375 -24.054688 C 26.4375 -28.300781 23.800781 -32.160156 17.816406 -32.160156 C -0.644531 -32.160156 -5.980469 0 12.09375 0 Z M 14.40625 -18.910156 C 12.351562 -18.910156 11.386719 -20.132812 11.386719 -21.546875 C 11.386719 -23.285156 12.929688 -25.148438 15.4375 -25.148438 C 17.429688 -25.148438 18.394531 -23.929688 18.394531 -22.511719 C 18.394531 -20.90625 16.917969 -18.910156 14.40625 -18.910156 Z M 14.40625 -18.910156 "/></g></g></g><g fill="#ffffff" fill-opacity="1"><g transform="translate(205.428392, 61.84527)"><g><path d="M 26.886719 -17.625 C 25.601562 -15.695312 24.378906 -14.34375 22.449219 -14.34375 C 19.554688 -14.34375 18.460938 -15.695312 18.460938 -17.496094 C 18.460938 -21.484375 21.226562 -24.183594 21.226562 -27.851562 C 21.226562 -31.324219 15.050781 -35.441406 9.003906 -35.441406 C 5.53125 -35.441406 3.28125 -32.289062 3.28125 -29.652344 C 3.28125 -27.335938 4.117188 -26.5 5.402344 -26.050781 C 4.308594 -23.089844 2.703125 -19.359375 1.480469 -17.625 C 0.644531 -16.402344 3.539062 -14.34375 4.375 -16.015625 C 5.402344 -18.140625 7.527344 -22.511719 8.683594 -25.085938 C 11.257812 -24.121094 12.09375 -22.511719 12.09375 -21.871094 C 12.09375 -18.78125 7.589844 -12.734375 7.589844 -6.753906 C 7.589844 -3.472656 9.390625 0 14.664062 0 C 23.347656 0 27.722656 -12.476562 29.78125 -16.015625 C 30.488281 -17.238281 27.914062 -19.167969 26.886719 -17.625 Z M 26.886719 -17.625 "/></g></g></g><g fill="#ffffff" fill-opacity="1"><g transform="translate(230.833338, 61.84527)"><g/></g></g><g fill="#ffffff" fill-opacity="1"><g transform="translate(253.987214, 61.84527)"><g><path d="M 7.847656 2.703125 C 17.046875 2.703125 24.378906 -5.597656 28.429688 -16.53125 C 28.753906 -17.496094 29.136719 -18.011719 30.101562 -18.011719 C 33.253906 -18.011719 32.996094 -11.898438 33.320312 -8.234375 C 33.769531 -2.378906 36.597656 0 40.203125 0 C 46.957031 0 53.257812 -8.234375 56.539062 -16.015625 C 57.054688 -17.300781 54.671875 -19.167969 53.644531 -17.625 C 51.90625 -15.050781 50.300781 -13.316406 47.40625 -13.316406 C 44.898438 -13.316406 43.804688 -14.601562 42.839844 -16.335938 C 41.488281 -18.78125 40.265625 -18.523438 40.265625 -19.359375 C 40.265625 -19.8125 40.714844 -20.132812 42.515625 -20.390625 C 48.886719 -21.417969 52.742188 -26.824219 52.742188 -33.960938 C 52.742188 -42.644531 46.117188 -47.855469 32.03125 -47.855469 C 14.601562 -47.855469 3.796875 -37.5 3.796875 -28.367188 C 3.796875 -23.671875 6.5625 -19.425781 11.835938 -19.425781 C 18.074219 -19.425781 21.417969 -24.957031 20.261719 -27.789062 C 18.847656 -27.789062 17.816406 -29.074219 17.816406 -30.808594 C 17.816406 -34.925781 22.382812 -39.238281 30.875 -39.238281 C 37.433594 -39.238281 42.257812 -37.308594 42.257812 -32.097656 C 42.257812 -27.53125 38.65625 -24.054688 34.667969 -24.054688 C 33.125 -24.054688 32.097656 -24.25 32.226562 -25.792969 C 32.417969 -27.335938 33.0625 -29.460938 34.15625 -32.609375 C 34.796875 -34.734375 34.027344 -36.085938 31.324219 -36.085938 C 29.394531 -36.085938 27.980469 -35.25 27.144531 -32.996094 C 26.050781 -30.230469 24.828125 -26.949219 23.734375 -24.054688 C 19.941406 -15.695312 15.886719 -13.058594 12.351562 -13.058594 C 9.328125 -13.058594 6.945312 -14.988281 6.945312 -17.816406 C 6.945312 -18.265625 6.496094 -18.589844 5.980469 -18.589844 C 0.835938 -18.589844 -2.574219 -13.378906 -2.574219 -8.105469 C -2.574219 -2.765625 0.386719 2.703125 7.847656 2.703125 Z M 7.847656 2.703125 "/></g></g></g><g fill="#ffffff" fill-opacity="1"><g transform="translate(306.147753, 61.84527)"><g><path d="M 12.09375 0 C 19.554688 0 26.371094 -5.53125 32.03125 -16.015625 C 32.738281 -17.238281 30.167969 -19.167969 29.136719 -17.625 C 26.242188 -13.1875 21.035156 -10.933594 16.660156 -10.933594 C 12.992188 -10.933594 9.96875 -12.09375 9.96875 -14.34375 C 9.96875 -15.179688 10.613281 -15.371094 11.0625 -15.117188 C 12.542969 -14.28125 14.28125 -14.085938 16.082031 -14.085938 C 22.382812 -14.085938 26.4375 -19.359375 26.4375 -24.054688 C 26.4375 -28.300781 23.800781 -32.160156 17.816406 -32.160156 C -0.644531 -32.160156 -5.980469 0 12.09375 0 Z M 14.40625 -18.910156 C 12.351562 -18.910156 11.386719 -20.132812 11.386719 -21.546875 C 11.386719 -23.285156 12.929688 -25.148438 15.4375 -25.148438 C 17.429688 -25.148438 18.394531 -23.929688 18.394531 -22.511719 C 18.394531 -20.90625 16.917969 -18.910156 14.40625 -18.910156 Z M 14.40625 -18.910156 "/></g></g></g><g fill="#ffffff" fill-opacity="1"><g transform="translate(333.80377, 61.84527)"><g><path d="M 32.867188 -17.625 C 31.324219 -15.371094 29.589844 -14.472656 27.722656 -14.472656 C 28.496094 -16.980469 28.945312 -19.617188 28.945312 -22.382812 C 28.945312 -28.429688 25.601562 -32.160156 20.519531 -32.160156 C 18.523438 -32.160156 16.464844 -31.773438 14.214844 -29.589844 C 13.1875 -28.558594 11.964844 -29.007812 12.15625 -29.972656 C 12.351562 -31.132812 11.835938 -32.160156 9.585938 -32.160156 C 6.304688 -32.160156 5.660156 -29.910156 1.480469 -17.625 C 0.578125 -15.050781 -0.320312 -12.605469 -1.15625 -10.355469 C -4.4375 -1.929688 -7.398438 4.503906 -7.398438 8.425781 C -7.398438 11.257812 -6.109375 12.863281 -2.894531 12.863281 C 1.671875 12.863281 3.410156 2.1875 5.339844 -7.203125 C 5.660156 -8.8125 7.398438 -8.683594 7.140625 -7.203125 C 6.304688 -2.058594 9.132812 0 12.800781 0 C 16.917969 0 21.097656 -2.832031 24.121094 -7.203125 L 24.507812 -7.203125 C 30.746094 -7.203125 33.898438 -12.09375 35.761719 -16.015625 C 36.46875 -17.496094 33.640625 -18.71875 32.867188 -17.625 Z M 14.023438 -13.316406 C 11.578125 -13.316406 10.675781 -14.921875 10.675781 -16.789062 C 10.675781 -19.617188 12.800781 -22.769531 15.953125 -22.769531 C 18.460938 -22.769531 19.488281 -21.226562 19.488281 -19.359375 C 19.488281 -16.660156 17.238281 -13.316406 14.023438 -13.316406 Z M 14.023438 -13.316406 "/></g></g></g><g fill="#ffffff" fill-opacity="1"><g transform="translate(365.19016, 61.84527)"><g><path d="M 32.097656 -17.625 C 30.554688 -15.371094 28.816406 -14.472656 26.949219 -14.472656 L 26.5 -14.472656 C 27.144531 -16.59375 27.464844 -18.847656 27.464844 -21.097656 C 27.464844 -29.203125 23.347656 -32.160156 18.074219 -32.160156 C 7.847656 -32.160156 0.386719 -20.453125 0.386719 -10.804688 C 0.386719 -4.117188 4.566406 0 10.355469 0 C 15.179688 0 19.746094 -2.832031 22.964844 -7.203125 L 23.734375 -7.203125 C 29.972656 -7.203125 33.125 -12.09375 34.992188 -16.015625 C 35.699219 -17.496094 32.867188 -18.71875 32.097656 -17.625 Z M 14.023438 -13.316406 C 11.578125 -13.316406 10.675781 -14.921875 10.675781 -16.789062 C 10.675781 -19.617188 12.800781 -22.769531 15.953125 -22.769531 C 18.460938 -22.769531 19.488281 -21.226562 19.488281 -19.359375 C 19.488281 -16.660156 17.238281 -13.316406 14.023438 -13.316406 Z M 14.023438 -13.316406 "/></g></g></g><g fill="#ffffff" fill-opacity="1"><g transform="translate(395.80474, 61.84527)"><g><path d="M 26.886719 -17.625 C 25.601562 -15.695312 24.378906 -14.34375 22.449219 -14.34375 C 19.554688 -14.34375 18.460938 -15.695312 18.460938 -17.496094 C 18.460938 -21.484375 21.226562 -24.183594 21.226562 -27.851562 C 21.226562 -31.324219 15.050781 -35.441406 9.003906 -35.441406 C 5.53125 -35.441406 3.28125 -32.289062 3.28125 -29.652344 C 3.28125 -27.335938 4.117188 -26.5 5.402344 -26.050781 C 4.308594 -23.089844 2.703125 -19.359375 1.480469 -17.625 C 0.644531 -16.402344 3.539062 -14.34375 4.375 -16.015625 C 5.402344 -18.140625 7.527344 -22.511719 8.683594 -25.085938 C 11.257812 -24.121094 12.09375 -22.511719 12.09375 -21.871094 C 12.09375 -18.78125 7.589844 -12.734375 7.589844 -6.753906 C 7.589844 -3.472656 9.390625 0 14.664062 0 C 23.347656 0 27.722656 -12.476562 29.78125 -16.015625 C 30.488281 -17.238281 27.914062 -19.167969 26.886719 -17.625 Z M 26.886719 -17.625 "/></g></g></g><g fill="#ffffff" fill-opacity="1"><g transform="translate(421.209708, 61.84527)"><g><path d="M 6.496094 0 C 15.757812 0 20.710938 -12.351562 22.640625 -16.015625 C 23.285156 -17.238281 20.777344 -19.105469 19.746094 -17.625 C 18.460938 -15.628906 16.402344 -14.40625 13.828125 -14.40625 C 10.035156 -14.40625 8.039062 -17.238281 9.390625 -21.742188 C 10.613281 -26.050781 11 -26.179688 16.980469 -26.179688 C 19.554688 -26.179688 20.324219 -32.097656 18.589844 -32.097656 L 15.246094 -32.097656 C 14.023438 -32.097656 14.214844 -33.191406 15.179688 -35.25 C 17.175781 -39.300781 16.335938 -41.292969 13.957031 -41.292969 C 12.351562 -41.292969 10.933594 -40.714844 9.390625 -36.984375 C 8.492188 -34.667969 6.433594 -32.097656 2.703125 -32.097656 C 1.222656 -32.097656 1.285156 -27.144531 5.015625 -27.144531 C 3.410156 -22.707031 1.992188 -18.910156 0.902344 -15.695312 C -1.992188 -7.460938 -0.707031 0 6.496094 0 Z M 6.496094 0 "/></g></g></g></svg>